<?xml version="1.0" encoding="utf-8"?>
<!-- Generator: Adobe Illustrator 28.0.0, SVG Export Plug-In . SVG Version: 6.00 Build 0)  -->
<svg version="1.1" id="Layer_1" xmlns="http://www.w3.org/2000/svg" xmlns:xlink="http://www.w3.org/1999/xlink" x="0px" y="0px"
	 width="1440px" height="1440px" viewBox="0 0 144 144" style="enable-background:new 0 0 144 144;" xml:space="preserve">
<style type="text/css">
	.st0{fill:#FFFFFF;}
</style>
<g>
	<rect x="0" y="0" class="st0" width="144" height="144"/>
	<g>
		<path d="M72.0003891,12.0001955c-33.0839844,0-60,26.9160156-60,60.0000038s26.9160137,60,60,60
			s60.0000076-26.9160156,60.0000076-60S105.0843735,12.0001955,72.0003891,12.0001955z M72.0003891,120.0001984
			c-26.4667969,0-48-21.5332031-48-48s21.5332012-48.0000038,48-48.0000038s48,21.5332031,48,48.0000038
			S98.467186,120.0001984,72.0003891,120.0001984z"/>
		<path d="M96.0003891,66.0001984h-18V48.0001945c0-3.3134766-2.6865234-6-6-6s-6,2.6865234-6,6v18.0000038h-18
			c-3.3134766,0-6,2.6865234-6,6s2.6865234,6,6,6h18v18c0,3.3134766,2.6865234,6,6,6s6-2.6865234,6-6v-18h18
			c3.3134766,0,6-2.6865234,6-6S99.3138657,66.0001984,96.0003891,66.0001984z"/>
	</g>
</g>
</svg>
