<?xml version="1.0" encoding="utf-8"?>
<!-- Generator: Adobe Illustrator 28.0.0, SVG Export Plug-In . SVG Version: 6.00 Build 0)  -->
<svg version="1.1" id="Layer_1" xmlns="http://www.w3.org/2000/svg" xmlns:xlink="http://www.w3.org/1999/xlink" x="0px" y="0px"
	 width="1440px" height="1440px" viewBox="0 0 144 144" style="enable-background:new 0 0 144 144;" xml:space="preserve">
<style type="text/css">
	.st0{fill:#FFFFFF;}
	.st1{fill:#FCEE21;}
	.st2{stroke:#000000;stroke-width:12;stroke-miterlimit:10;}
	.st3{fill:none;stroke:#FFFFFF;stroke-width:12;stroke-linecap:round;stroke-miterlimit:10;}
	.st4{fill:none;stroke:#000000;stroke-width:12;stroke-linecap:round;stroke-miterlimit:10;}
	.st5{fill:none;stroke:#000000;stroke-width:12;stroke-miterlimit:10;}
	.st6{fill:none;stroke:#000000;stroke-width:12;stroke-linecap:round;stroke-linejoin:round;stroke-miterlimit:10;}
	.st7{fill:none;stroke:#FFFFFF;stroke-width:12;stroke-linecap:round;stroke-linejoin:round;stroke-miterlimit:10;}
	.st8{stroke:#000000;stroke-width:12;stroke-linecap:round;stroke-linejoin:round;stroke-miterlimit:10;}
</style>
<rect x="0" y="0" class="st0" width="144" height="144"/>
<path d="M108,27H90c0-9.9399414-8.0599976-18-18-18s-18,8.0600586-18,18H36c-9.9199829,0-18,8.0800781-18,18v66
	c0,9.9199219,8.0800171,18,18,18h72c9.9199829,0,18-8.0800781,18-18V45C126,35.0800781,117.9199829,27,108,27z M72,21
	c3.3099976,0,6,2.6899414,6,6s-2.6900024,6-6,6s-6-2.6899414-6-6S68.6900024,21,72,21z M114,111c0,3.3100586-2.6900024,6-6,6H36
	c-3.3099976,0-6-2.6899414-6-6V45c0-3.3100586,2.6900024-6,6-6h12v12c0,3.3100586,2.6900024,6,6,6h36c3.3099976,0,6-2.6899414,6-6
	V39h12c3.3099976,0,6,2.6899414,6,6V111z"/>
</svg>
