<?xml version="1.0" encoding="utf-8"?>
<!-- Generator: Adobe Illustrator 28.0.0, SVG Export Plug-In . SVG Version: 6.00 Build 0)  -->
<svg version="1.1" id="Layer_1" xmlns="http://www.w3.org/2000/svg" xmlns:xlink="http://www.w3.org/1999/xlink" x="0px" y="0px"
	 width="1440px" height="1440px" viewBox="0 0 144 144" style="enable-background:new 0 0 144 144;" xml:space="preserve">
<style type="text/css">
	.st0{fill:#FFFFFF;}
</style>
<rect class="st0" width="144" height="144"/>
<path d="M142.6396484,56.1962891C141.5,54.8061523,139.7978516,54,138,54h-6c0-13.2333984-10.7666016-24-24-24H85.4560547
	c-3.2050781,0-6.21875-1.2480469-8.484375-3.5131836l-1.4570312-1.4580078C70.9814453,20.4960938,64.9541016,18,58.5439453,18H24
	c-6.6171875,0-12,5.3833008-12,12v90c0,1.293541,0.4504051,2.6936798,1.3603516,3.8037109C14.5,125.1938477,16.2021484,126,18,126
	h93.2431641c11.4003906,0,21.2978516-8.1137695,23.5341797-19.2929688l9.1064453-45.5302734
	C144.2363281,59.4140625,143.7792969,57.5864258,142.6396484,56.1962891z M24,59.4042969V30h34.5439453
	c3.2050781,0,6.21875,1.2480469,8.484375,3.5131836l1.4570312,1.4580078C73.0185547,39.5039062,79.0458984,42,85.4560547,42H108
	c6.6171875,0,12,5.3833008,12,12H30c-2.8603516,0-5.3222656,2.0185547-5.8837891,4.8232422L24,59.4042969z M123.0097656,104.3535156
	C121.8925781,109.9433594,116.9433594,114,111.2431641,114H25.3183594l9.6005859-48h95.7617188L123.0097656,104.3535156z"/>
</svg>
