<?xml version="1.0" encoding="utf-8"?>
<!-- Generator: Adobe Illustrator 28.0.0, SVG Export Plug-In . SVG Version: 6.00 Build 0)  -->
<svg version="1.1" id="Layer_1" xmlns="http://www.w3.org/2000/svg" xmlns:xlink="http://www.w3.org/1999/xlink" x="0px" y="0px"
	 width="1440px" height="1440px" viewBox="0 0 144 144" style="enable-background:new 0 0 144 144;" xml:space="preserve">
<style type="text/css">
	.st0{fill:#FFFFFF;}
</style>
<rect class="st0" width="144" height="144"/>
<path d="M120,65.9998016H96c-2.6787109,0-5.0332031,1.7758789-5.769043,4.3515625L84,92.1594696L65.769043,28.351368
	C65.0332031,25.7756844,62.6787109,23.9998055,60,23.9998055s-5.0332031,1.7758789-5.769043,4.3515625L43.4741211,65.9998016H24
	c-3.3134766,0-6,2.6865234-6,6s2.6865234,6,6,6h24c2.6787109,0,5.0332031-1.7758789,5.769043-4.3515625L60,51.8401375
	l18.230957,63.8081017c0.7358398,2.5756836,3.090332,4.3515625,5.769043,4.3515625s5.0332031-1.7758789,5.769043-4.3515625
	l10.7568359-37.6484375H120c3.3134766,0,6-2.6865234,6-6S123.3134766,65.9998016,120,65.9998016z"/>
</svg>
