<?xml version="1.0" encoding="utf-8"?>
<!-- Generator: Adobe Illustrator 28.0.0, SVG Export Plug-In . SVG Version: 6.00 Build 0)  -->
<svg version="1.1" id="Layer_1" xmlns="http://www.w3.org/2000/svg" xmlns:xlink="http://www.w3.org/1999/xlink" x="0px" y="0px"
	 width="1440px" height="1440px" viewBox="0 0 144 144" style="enable-background:new 0 0 144 144;" xml:space="preserve">
<style type="text/css">
	.st0{fill:#FFFFFF;}
	.st1{fill:#FCEE21;}
	.st2{stroke:#000000;stroke-width:12;stroke-miterlimit:10;}
	.st3{fill:none;stroke:#FFFFFF;stroke-width:12;stroke-linecap:round;stroke-miterlimit:10;}
	.st4{fill:none;stroke:#000000;stroke-width:12;stroke-linecap:round;stroke-miterlimit:10;}
	.st5{fill:none;stroke:#000000;stroke-width:12;stroke-miterlimit:10;}
	.st6{fill:none;stroke:#000000;stroke-width:12;stroke-linecap:round;stroke-linejoin:round;stroke-miterlimit:10;}
	.st7{fill:none;stroke:#FFFFFF;stroke-width:12;stroke-linecap:round;stroke-linejoin:round;stroke-miterlimit:10;}
	.st8{stroke:#000000;stroke-width:12;stroke-linecap:round;stroke-linejoin:round;stroke-miterlimit:10;}
</style>
<rect y="0" class="st0" width="144" height="144"/>
<path d="M130.3872986,57.1876945c-1.6367188-5.0361328-6.1162033-8.2910156-11.4121017-8.2910156H91.8082047l-8.3955078-25.8378906
	c-1.6376953-5.0371094-6.1171875-8.2910147-11.4140625-8.2910147c-5.2958984,0-9.7753906,3.2548819-11.4111328,8.2910147
	l-8.3955078,25.8378906H25.0249996c-5.2958984,0-9.7753906,3.2539062-11.4121094,8.2910156
	s0.0742188,10.3037148,4.359375,13.4179726l21.977541,15.9677734l-8.3945332,25.8378906
	c-1.6367188,5.0371094,0.0742188,10.3037109,4.3603535,13.4169922c2.1416016,1.5556641,4.5966797,2.3339844,7.0517578,2.3339844
	c2.4560547,0,4.9121094-0.7783203,7.0537109-2.3349609l21.9785156-15.96875l21.9785156,15.9677734
	c4.2841797,3.1142578,9.8222656,3.1142578,14.1064453,0.0019531c4.2861328-3.1132812,5.9970703-8.3798828,4.3603516-13.4179688
	l-8.3945312-25.8369141l21.9785156-15.96875C130.3130798,67.4914093,132.0240173,62.2248039,130.3872986,57.1876945z
	 M93.470314,79.4269562c-2.1035156,1.5283203-2.9833984,4.2363281-2.1796875,6.7089844l9.734375,29.9775391L75.5259781,97.588089
	c-1.0507812-0.7636719-2.2890625-1.1455078-3.5263672-1.1455078s-2.4755859,0.3818359-3.5263672,1.1455078L42.970314,116.1105499
	l9.7392578-29.9746094c0.8037109-2.4726562-0.0761719-5.1806641-2.1796875-6.7089844L25.0337887,60.8966789h31.51758
	c2.5996094,0,4.9033203-1.6738281,5.7060547-4.1455078l9.7451172-29.9755859l9.7402344,29.9755859
	c0.8027344,2.4716797,3.1064453,4.1455078,5.7060547,4.1455078l31.5195312,0.0058594L93.470314,79.4269562z"/>
</svg>
