<svg enable-background="new 0 0 144 144" height="1440" viewBox="0 0 144 144" width="1440" xmlns="http://www.w3.org/2000/svg"><path d="m0 0h144v144h-144z" fill="#fff"/><circle cx="57" cy="54.000011" r="9"/><circle cx="87" cy="54.000011" r="9"/><path d="m90 72.0001984c-3.3134766 0-6 2.6865234-6 6 0 6.6166992-5.3833008 12-12 12s-12-5.3833008-12-12c0-3.3134766-2.6865234-6-6-6s-6 2.6865234-6 6c0 13.2333984 10.7666016 24 24 24s24-10.7666016 24-24c0-3.3134766-2.6865234-6-6-6z"/><path d="m105 15.0001955h-66c-13.2333984 0-24 10.7666006-24 24v66c0 13.2333984 10.7666016 24 24 24h66c13.2333984 0 24-10.7666016 24-24v-66c0-13.2333994-10.7666016-24-24-24zm12 90.0000029c0 6.6166992-5.3833008 12-12 12h-66c-6.6166992 0-12-5.3833008-12-12v-66c0-6.6166992 5.3833008-12 12-12h66c6.6166992 0 12 5.3833008 12 12z"/></svg>