<?xml version="1.0" encoding="utf-8"?>
<!-- Generator: Adobe Illustrator 28.0.0, SVG Export Plug-In . SVG Version: 6.00 Build 0)  -->
<svg version="1.1" id="Layer_1" xmlns="http://www.w3.org/2000/svg" xmlns:xlink="http://www.w3.org/1999/xlink" x="0px" y="0px"
	 width="1440px" height="1440px" viewBox="0 0 144 144" style="enable-background:new 0 0 144 144;" xml:space="preserve">
<style type="text/css">
	.st0{fill:#FFFFFF;}
</style>
<g>
	<rect x="0" class="st0" width="144" height="144"/>
	<g>
		<path d="M94.9751434,65.4876938L58.5593147,47.279686c-4.8513184-2.4257812-10.5593262,1.1020508-10.5593262,6.5258789v36.3886719
			c0,5.4238281,5.7080078,8.9516602,10.5593262,6.5258789l36.4158287-18.2075195
			C100.3416595,75.8290024,100.3416595,68.1707993,94.9751434,65.4876938z"/>
		<path d="M71.9998016,12.000391c-33.0839806,0-59.9999962,26.9160137-59.9999962,60s26.9160156,60.0000076,59.9999962,60.0000076
			s60-26.9160233,60-60.0000076S105.083786,12.000391,71.9998016,12.000391z M71.9998016,120.0003891
			c-26.4672813,0-47.9999962-21.5332031-47.9999962-48s21.5327148-48,47.9999962-48s48,21.5332012,48,48
			S98.4670868,120.0003891,71.9998016,120.0003891z"/>
	</g>
</g>
</svg>
