<?xml version="1.0" encoding="utf-8"?>
<!-- Generator: Adobe Illustrator 28.0.0, SVG Export Plug-In . SVG Version: 6.00 Build 0)  -->
<svg version="1.1" id="Layer_1" xmlns="http://www.w3.org/2000/svg" xmlns:xlink="http://www.w3.org/1999/xlink" x="0px" y="0px"
	 width="1440px" height="1440px" viewBox="0 0 144 144" style="enable-background:new 0 0 144 144;" xml:space="preserve">
<style type="text/css">
	.st0{fill:#FFFFFF;}
	.st1{fill:#FCEE21;}
	.st2{stroke:#000000;stroke-width:12;stroke-miterlimit:10;}
	.st3{fill:none;stroke:#FFFFFF;stroke-width:12;stroke-linecap:round;stroke-miterlimit:10;}
	.st4{fill:none;stroke:#000000;stroke-width:12;stroke-linecap:round;stroke-miterlimit:10;}
	.st5{fill:none;stroke:#000000;stroke-width:12;stroke-miterlimit:10;}
	.st6{fill:none;stroke:#000000;stroke-width:12;stroke-linecap:round;stroke-linejoin:round;stroke-miterlimit:10;}
	.st7{fill:none;stroke:#FFFFFF;stroke-width:12;stroke-linecap:round;stroke-linejoin:round;stroke-miterlimit:10;}
	.st8{stroke:#000000;stroke-width:12;stroke-linecap:round;stroke-linejoin:round;stroke-miterlimit:10;}
</style>
<rect y="0" class="st0" width="144" height="144"/>
<g>
	<path d="M123.7281265,67.2431641L82.7574234,26.2714844C79.3560562,22.8720703,74.836525,21,70.0298843,21H38.9996109
		c-9.9248066,0-18.0000019,8.0751953-18.0000019,18v31.0292969c0,4.8085938,1.8730469,9.3291016,5.2724609,12.7275391
		l40.9707031,40.9707031c3.5087891,3.5097656,8.1181641,5.2636719,12.7275391,5.2636719s9.21875-1.7539062,12.7275391-5.2636719
		L123.72715,92.6982422C130.745697,85.6806641,130.745697,74.2607422,123.7281265,67.2431641z M115.242775,84.2138672
		l-31.0292969,31.0292969C83.079689,116.3759766,81.5728531,117,79.970314,117s-3.109375-0.6240234-4.2421875-1.7568359
		L34.7574234,74.2714844c-1.1337891-1.1328125-1.7578125-2.6396484-1.7578125-4.2421875V39c0-3.3085938,2.6914062-6,6-6h31.0302734
		c1.6025391,0,3.109375,0.6240234,4.2421875,1.7568359l40.9697266,40.9707031h0.0009766
		c1.1328125,1.1337891,1.7568359,2.640625,1.7568359,4.2431641S116.3755875,83.0800781,115.242775,84.2138672z"/>
	<circle cx="53.9999771" cy="54" r="12"/>
</g>
</svg>
